<svg id="Capa_1" enable-background="new 0 0 512 512" height="512" viewBox="0 0 512 512" width="512" xmlns="http://www.w3.org/2000/svg"><g><g><path d="m323.67 405.04-5.8 29.43c-.17-.034-129.252-25.453-129.54-25.51l5.79-29.43c.929.183 129.388 25.478 129.55 25.51z" fill="#61729b"/></g><g><path d="m156.523 287h107.954v30h-107.954z" fill="#61729b" transform="matrix(.817 -.577 .577 .817 -135.657 176.741)"/></g><g><path d="m316 152c-49.88 0-105 27.28-105 75 0 47.7 55.09 75 105 75 49.88 0 105-27.28 105-75 0-47.7-55.09-75-105-75z" fill="#7ed8f6"/></g><path d="m421 227c0 47.72-55.12 75-105 75v-150c49.91 0 105 27.3 105 75z" fill="#6aa9ff"/><g><g><g><g><path d="m105 452c-49.914 0-105-27.303-105-75 0-47.716 55.118-75 105-75 49.914 0 105 27.303 105 75 0 47.716-55.118 75-105 75z" fill="#7ed8f6"/></g></g></g></g><g><path d="m407 512c-49.914 0-105-27.303-105-75 0-47.716 55.118-75 105-75 49.914 0 105 27.303 105 75 0 47.716-55.118 75-105 75z" fill="#6aa9ff"/></g><g><path d="m301 120v107h30v-122z" fill="#61729b"/><path d="m331 105v122h-15v-114.5z" fill="#47568c"/><path d="m301 0h150v120h-150z" fill="#ff641a"/><path d="m316 0h135v120h-135z" fill="#f03800"/></g></g></svg>